<?xml version="1.0" encoding="UTF-8"?>
<svg xmlns="http://www.w3.org/2000/svg" xmlns:xlink="http://www.w3.org/1999/xlink" width="65px" height="95px" viewBox="0 0 65 94" version="1.1">
<g id="surface1">
<path style=" stroke:none;fill-rule:nonzero;fill:rgb(0%,0%,0%);fill-opacity:1;" d="M 22.921875 31.433594 L 32.394531 31.433594 C 34.699219 31.433594 37.738281 31.433594 39.308594 32.378906 C 41.03125 33.394531 42.382812 35.238281 42.382812 37.78125 C 42.382812 40.535156 40.921875 42.601562 38.503906 43.578125 L 38.503906 43.652344 C 41.722656 44.304688 43.476562 46.695312 43.476562 49.886719 C 43.476562 53.691406 40.730469 57.316406 35.539062 57.316406 L 22.921875 57.316406 Z M 26.398438 42.558594 L 33.355469 42.558594 C 37.304688 42.558594 38.914062 41.144531 38.914062 38.425781 C 38.914062 34.835938 36.355469 34.328125 33.355469 34.328125 L 26.398438 34.328125 Z M 26.398438 54.410156 L 35.109375 54.410156 C 38.105469 54.410156 40.011719 52.597656 40.011719 49.773438 C 40.011719 46.402344 37.265625 45.460938 34.339844 45.460938 L 26.398438 45.460938 Z M 26.398438 54.410156 "/>
<path style=" stroke:none;fill-rule:nonzero;fill:rgb(0%,0%,0%);fill-opacity:1;" d="M 52.367188 44.382812 C 52.367188 55.25 43.472656 64.0625 32.496094 64.0625 C 21.523438 64.0625 12.625 55.25 12.625 44.382812 C 12.625 33.511719 21.523438 24.699219 32.496094 24.699219 C 43.472656 24.703125 52.367188 33.515625 52.367188 44.382812 Z M 32.5 21.703125 C 19.863281 21.703125 9.617188 31.851562 9.617188 44.371094 C 9.617188 56.890625 19.863281 67.042969 32.5 67.042969 C 45.140625 67.042969 55.390625 56.890625 55.390625 44.371094 C 55.390625 31.851562 45.140625 21.703125 32.5 21.703125 Z M 32.5 21.703125 "/>
<path style=" stroke:none;fill-rule:nonzero;fill:rgb(0%,0%,0%);fill-opacity:1;" d="M 9.65625 71.828125 L 55.335938 71.828125 L 55.335938 74.800781 L 9.65625 74.800781 Z M 9.65625 71.828125 "/>
<path style=" stroke:none;fill-rule:nonzero;fill:rgb(0%,0%,0%);fill-opacity:1;" d="M 53.910156 68.554688 C 53.964844 68.554688 54.019531 68.550781 54.070312 68.550781 C 54.117188 68.542969 54.164062 68.535156 54.203125 68.519531 C 54.246094 68.503906 54.273438 68.472656 54.296875 68.441406 C 54.324219 68.402344 54.332031 68.355469 54.332031 68.296875 C 54.332031 68.242188 54.324219 68.195312 54.304688 68.167969 C 54.285156 68.136719 54.257812 68.113281 54.222656 68.097656 C 54.191406 68.078125 54.15625 68.070312 54.109375 68.0625 C 54.066406 68.054688 54.027344 68.054688 53.980469 68.054688 L 53.652344 68.054688 L 53.652344 68.558594 L 53.910156 68.558594 Z M 54.019531 67.847656 C 54.207031 67.847656 54.347656 67.886719 54.441406 67.960938 C 54.53125 68.039062 54.578125 68.148438 54.578125 68.304688 C 54.578125 68.449219 54.535156 68.550781 54.460938 68.621094 C 54.378906 68.6875 54.28125 68.722656 54.15625 68.738281 L 54.613281 69.433594 L 54.347656 69.433594 L 53.910156 68.75 L 53.648438 68.75 L 53.648438 69.433594 L 53.398438 69.433594 L 53.398438 67.855469 L 54.019531 67.855469 Z M 52.898438 69.09375 C 52.953125 69.234375 53.03125 69.363281 53.136719 69.464844 C 53.238281 69.570312 53.355469 69.648438 53.492188 69.710938 C 53.625 69.765625 53.777344 69.792969 53.933594 69.792969 C 54.09375 69.792969 54.242188 69.765625 54.375 69.710938 C 54.511719 69.648438 54.628906 69.570312 54.730469 69.464844 C 54.828125 69.363281 54.910156 69.238281 54.960938 69.09375 C 55.019531 68.953125 55.050781 68.804688 55.050781 68.636719 C 55.050781 68.472656 55.023438 68.324219 54.960938 68.183594 C 54.90625 68.042969 54.824219 67.921875 54.730469 67.816406 C 54.625 67.714844 54.507812 67.632812 54.375 67.578125 C 54.242188 67.519531 54.089844 67.488281 53.933594 67.488281 C 53.777344 67.488281 53.625 67.519531 53.492188 67.578125 C 53.355469 67.636719 53.230469 67.71875 53.136719 67.816406 C 53.03125 67.921875 52.957031 68.042969 52.898438 68.183594 C 52.84375 68.324219 52.8125 68.46875 52.8125 68.636719 C 52.808594 68.796875 52.839844 68.953125 52.898438 69.09375 M 52.671875 68.101562 C 52.742188 67.9375 52.84375 67.800781 52.964844 67.679688 C 53.089844 67.558594 53.238281 67.46875 53.402344 67.398438 C 53.566406 67.328125 53.75 67.296875 53.929688 67.296875 C 54.117188 67.296875 54.292969 67.328125 54.464844 67.398438 C 54.625 67.46875 54.773438 67.558594 54.890625 67.679688 C 55.015625 67.800781 55.117188 67.945312 55.183594 68.101562 C 55.261719 68.265625 55.292969 68.445312 55.292969 68.636719 C 55.292969 68.832031 55.261719 69.007812 55.183594 69.175781 C 55.113281 69.34375 55.015625 69.484375 54.890625 69.605469 C 54.769531 69.734375 54.625 69.824219 54.464844 69.894531 C 54.292969 69.957031 54.117188 69.992188 53.929688 69.992188 C 53.742188 69.992188 53.566406 69.957031 53.402344 69.894531 C 53.238281 69.824219 53.089844 69.734375 52.964844 69.605469 C 52.84375 69.484375 52.742188 69.34375 52.671875 69.175781 C 52.597656 69.007812 52.566406 68.832031 52.566406 68.636719 C 52.5625 68.445312 52.597656 68.265625 52.671875 68.101562 "/>
<path style=" stroke:none;fill-rule:nonzero;fill:rgb(0%,0%,0%);fill-opacity:1;" d="M 15.195312 11.734375 C 15.085938 11.558594 14.953125 11.410156 14.792969 11.28125 C 14.632812 11.152344 14.449219 11.054688 14.242188 10.976562 C 14.039062 10.90625 13.828125 10.871094 13.601562 10.871094 C 13.195312 10.871094 12.847656 10.949219 12.558594 11.105469 C 12.277344 11.257812 12.042969 11.472656 11.867188 11.734375 C 11.691406 11.996094 11.558594 12.296875 11.480469 12.636719 C 11.398438 12.972656 11.355469 13.320312 11.355469 13.679688 C 11.355469 14.023438 11.394531 14.355469 11.480469 14.679688 C 11.558594 15.003906 11.6875 15.292969 11.867188 15.558594 C 12.042969 15.816406 12.277344 16.027344 12.558594 16.183594 C 12.84375 16.335938 13.191406 16.417969 13.601562 16.417969 C 14.160156 16.417969 14.59375 16.25 14.902344 15.914062 C 15.214844 15.578125 15.40625 15.136719 15.476562 14.585938 L 17.234375 14.585938 C 17.1875 15.097656 17.070312 15.558594 16.875 15.972656 C 16.679688 16.382812 16.429688 16.738281 16.113281 17.023438 C 15.792969 17.316406 15.425781 17.535156 15.003906 17.691406 C 14.582031 17.839844 14.109375 17.921875 13.601562 17.921875 C 12.972656 17.921875 12.402344 17.8125 11.894531 17.59375 C 11.390625 17.375 10.96875 17.074219 10.617188 16.691406 C 10.269531 16.308594 10.003906 15.859375 9.820312 15.339844 C 9.632812 14.824219 9.539062 14.269531 9.539062 13.675781 C 9.539062 13.0625 9.628906 12.496094 9.820312 11.972656 C 10.003906 11.453125 10.269531 10.992188 10.617188 10.605469 C 10.960938 10.21875 11.390625 9.910156 11.894531 9.691406 C 12.398438 9.46875 12.96875 9.355469 13.601562 9.355469 C 14.058594 9.355469 14.488281 9.421875 14.894531 9.550781 C 15.296875 9.679688 15.660156 9.871094 15.980469 10.117188 C 16.296875 10.367188 16.5625 10.671875 16.769531 11.039062 C 16.980469 11.40625 17.113281 11.828125 17.164062 12.296875 L 15.40625 12.296875 C 15.371094 12.089844 15.304688 11.902344 15.195312 11.734375 Z M 15.195312 11.734375 "/>
<path style=" stroke:none;fill-rule:nonzero;fill:rgb(0%,0%,0%);fill-opacity:1;" d="M 19.601562 16.308594 C 19.847656 16.542969 20.203125 16.667969 20.664062 16.667969 C 20.996094 16.667969 21.28125 16.585938 21.523438 16.421875 C 21.757812 16.257812 21.90625 16.082031 21.964844 15.902344 L 23.410156 15.902344 C 23.175781 16.609375 22.820312 17.121094 22.34375 17.425781 C 21.863281 17.734375 21.285156 17.886719 20.605469 17.886719 C 20.136719 17.886719 19.710938 17.8125 19.335938 17.664062 C 18.957031 17.511719 18.640625 17.300781 18.375 17.027344 C 18.113281 16.753906 17.910156 16.425781 17.765625 16.042969 C 17.625 15.660156 17.554688 15.238281 17.554688 14.78125 C 17.554688 14.339844 17.625 13.929688 17.773438 13.546875 C 17.917969 13.167969 18.128906 12.832031 18.398438 12.554688 C 18.667969 12.277344 18.992188 12.058594 19.363281 11.898438 C 19.738281 11.738281 20.152344 11.660156 20.605469 11.660156 C 21.113281 11.660156 21.558594 11.757812 21.941406 11.949219 C 22.320312 12.148438 22.628906 12.40625 22.871094 12.734375 C 23.109375 13.0625 23.285156 13.4375 23.394531 13.855469 C 23.503906 14.277344 23.542969 14.71875 23.507812 15.175781 L 19.195312 15.175781 C 19.21875 15.6875 19.351562 16.074219 19.601562 16.308594 Z M 21.457031 13.195312 C 21.257812 12.984375 20.957031 12.875 20.558594 12.875 C 20.300781 12.875 20.082031 12.917969 19.90625 13.007812 C 19.730469 13.097656 19.59375 13.203125 19.488281 13.332031 C 19.382812 13.460938 19.3125 13.597656 19.269531 13.746094 C 19.226562 13.890625 19.203125 14.015625 19.195312 14.132812 L 21.867188 14.132812 C 21.792969 13.722656 21.65625 13.40625 21.457031 13.195312 Z M 21.457031 13.195312 "/>
<path style=" stroke:none;fill-rule:nonzero;fill:rgb(0%,0%,0%);fill-opacity:1;" d="M 25.8125 11.804688 L 25.8125 12.902344 L 25.835938 12.902344 C 25.914062 12.71875 26.019531 12.550781 26.152344 12.390625 C 26.285156 12.238281 26.429688 12.101562 26.601562 11.992188 C 26.773438 11.882812 26.953125 11.796875 27.144531 11.734375 C 27.339844 11.671875 27.539062 11.644531 27.75 11.644531 C 27.859375 11.644531 27.976562 11.664062 28.109375 11.703125 L 28.109375 13.214844 C 28.03125 13.199219 27.9375 13.1875 27.828125 13.175781 C 27.71875 13.167969 27.617188 13.15625 27.515625 13.15625 C 27.21875 13.15625 26.960938 13.210938 26.753906 13.308594 C 26.542969 13.40625 26.378906 13.542969 26.25 13.714844 C 26.121094 13.890625 26.03125 14.085938 25.980469 14.316406 C 25.925781 14.546875 25.898438 14.796875 25.898438 15.066406 L 25.898438 17.738281 L 24.257812 17.738281 L 24.257812 11.804688 Z M 25.8125 11.804688 "/>
<path style=" stroke:none;fill-rule:nonzero;fill:rgb(0%,0%,0%);fill-opacity:1;" d="M 32.5 11.804688 L 32.5 12.894531 L 31.296875 12.894531 L 31.296875 15.832031 C 31.296875 16.109375 31.34375 16.289062 31.433594 16.378906 C 31.523438 16.46875 31.710938 16.515625 31.988281 16.515625 C 32.082031 16.515625 32.167969 16.511719 32.253906 16.507812 C 32.339844 16.496094 32.417969 16.488281 32.496094 16.472656 L 32.496094 17.734375 C 32.359375 17.757812 32.203125 17.769531 32.03125 17.78125 C 31.859375 17.789062 31.695312 17.792969 31.53125 17.792969 C 31.277344 17.792969 31.035156 17.773438 30.8125 17.742188 C 30.585938 17.710938 30.386719 17.644531 30.210938 17.539062 C 30.035156 17.441406 29.902344 17.300781 29.796875 17.117188 C 29.699219 16.933594 29.644531 16.695312 29.644531 16.394531 L 29.644531 12.898438 L 28.648438 12.898438 L 28.648438 11.808594 L 29.644531 11.808594 L 29.644531 10.035156 L 31.285156 10.035156 L 31.285156 11.808594 L 32.5 11.808594 Z M 32.5 11.804688 "/>
<path style=" stroke:none;fill-rule:nonzero;fill:rgb(0%,0%,0%);fill-opacity:1;" d="M 33.457031 10.886719 L 33.457031 9.546875 L 35.097656 9.546875 L 35.097656 10.886719 Z M 35.097656 11.804688 L 35.097656 17.726562 L 33.457031 17.726562 L 33.457031 11.804688 Z M 35.097656 11.804688 "/>
<path style=" stroke:none;fill-rule:nonzero;fill:rgb(0%,0%,0%);fill-opacity:1;" d="M 35.753906 12.894531 L 35.753906 11.804688 L 36.734375 11.804688 L 36.734375 11.34375 C 36.734375 10.816406 36.902344 10.386719 37.234375 10.046875 C 37.5625 9.710938 38.066406 9.546875 38.734375 9.546875 C 38.882812 9.546875 39.03125 9.550781 39.175781 9.5625 C 39.324219 9.574219 39.464844 9.585938 39.601562 9.59375 L 39.601562 10.808594 C 39.410156 10.785156 39.210938 10.777344 39 10.777344 C 38.777344 10.777344 38.617188 10.828125 38.523438 10.929688 C 38.425781 11.035156 38.378906 11.207031 38.378906 11.453125 L 38.378906 11.808594 L 39.511719 11.808594 L 39.511719 12.898438 L 38.378906 12.898438 L 38.378906 17.738281 L 36.734375 17.738281 L 36.734375 12.898438 L 35.753906 12.898438 Z M 35.753906 12.894531 "/>
<path style=" stroke:none;fill-rule:nonzero;fill:rgb(0%,0%,0%);fill-opacity:1;" d="M 40.621094 10.886719 L 40.621094 9.546875 L 42.261719 9.546875 L 42.261719 10.886719 Z M 42.269531 11.804688 L 42.269531 17.726562 L 40.621094 17.726562 L 40.621094 11.804688 Z M 42.269531 11.804688 "/>
<path style=" stroke:none;fill-rule:nonzero;fill:rgb(0%,0%,0%);fill-opacity:1;" d="M 44.859375 16.308594 C 45.105469 16.542969 45.460938 16.667969 45.917969 16.667969 C 46.25 16.667969 46.535156 16.585938 46.777344 16.421875 C 47.015625 16.257812 47.160156 16.082031 47.21875 15.902344 L 48.664062 15.902344 C 48.433594 16.609375 48.078125 17.121094 47.601562 17.425781 C 47.125 17.734375 46.546875 17.886719 45.867188 17.886719 C 45.398438 17.886719 44.972656 17.8125 44.597656 17.664062 C 44.21875 17.511719 43.898438 17.300781 43.632812 17.027344 C 43.375 16.753906 43.167969 16.425781 43.027344 16.042969 C 42.886719 15.660156 42.8125 15.238281 42.8125 14.78125 C 42.8125 14.339844 42.890625 13.929688 43.03125 13.546875 C 43.179688 13.152344 43.386719 12.824219 43.65625 12.546875 C 43.929688 12.269531 44.25 12.050781 44.625 11.890625 C 45 11.730469 45.414062 11.648438 45.867188 11.648438 C 46.375 11.648438 46.820312 11.75 47.199219 11.941406 C 47.578125 12.136719 47.886719 12.394531 48.128906 12.726562 C 48.371094 13.054688 48.546875 13.429688 48.65625 13.847656 C 48.765625 14.265625 48.800781 14.707031 48.773438 15.167969 L 44.460938 15.167969 C 44.476562 15.6875 44.609375 16.074219 44.859375 16.308594 Z M 46.714844 13.195312 C 46.523438 12.984375 46.21875 12.875 45.820312 12.875 C 45.558594 12.875 45.339844 12.917969 45.164062 13.007812 C 44.988281 13.097656 44.851562 13.203125 44.75 13.332031 C 44.644531 13.460938 44.574219 13.597656 44.53125 13.746094 C 44.488281 13.890625 44.464844 14.015625 44.453125 14.132812 L 47.125 14.132812 C 47.046875 13.722656 46.910156 13.40625 46.714844 13.195312 Z M 46.714844 13.195312 "/>
<path style=" stroke:none;fill-rule:nonzero;fill:rgb(0%,0%,0%);fill-opacity:1;" d="M 53.757812 16.976562 C 53.5625 17.296875 53.3125 17.53125 53 17.671875 C 52.6875 17.8125 52.335938 17.882812 51.941406 17.882812 C 51.496094 17.882812 51.101562 17.796875 50.761719 17.625 C 50.417969 17.449219 50.140625 17.222656 49.921875 16.925781 C 49.703125 16.628906 49.539062 16.289062 49.425781 15.910156 C 49.308594 15.53125 49.257812 15.128906 49.257812 14.71875 C 49.257812 14.316406 49.316406 13.9375 49.425781 13.566406 C 49.53125 13.195312 49.703125 12.871094 49.921875 12.585938 C 50.140625 12.300781 50.417969 12.074219 50.746094 11.902344 C 51.078125 11.730469 51.464844 11.644531 51.902344 11.644531 C 52.257812 11.644531 52.597656 11.71875 52.914062 11.871094 C 53.238281 12.019531 53.488281 12.238281 53.671875 12.527344 L 53.695312 12.527344 L 53.695312 9.550781 L 55.335938 9.550781 L 55.335938 17.734375 L 53.777344 17.734375 L 53.777344 16.976562 Z M 53.6875 14.046875 C 53.640625 13.820312 53.5625 13.621094 53.449219 13.449219 C 53.335938 13.273438 53.195312 13.140625 53.011719 13.03125 C 52.839844 12.921875 52.609375 12.871094 52.34375 12.871094 C 52.078125 12.871094 51.847656 12.921875 51.660156 13.03125 C 51.476562 13.140625 51.332031 13.28125 51.214844 13.453125 C 51.105469 13.628906 51.027344 13.828125 50.972656 14.054688 C 50.921875 14.28125 50.898438 14.515625 50.898438 14.757812 C 50.898438 14.988281 50.925781 15.21875 50.980469 15.445312 C 51.03125 15.675781 51.121094 15.878906 51.238281 16.058594 C 51.359375 16.238281 51.511719 16.382812 51.691406 16.496094 C 51.871094 16.609375 52.089844 16.660156 52.34375 16.660156 C 52.613281 16.660156 52.839844 16.609375 53.023438 16.503906 C 53.203125 16.394531 53.351562 16.253906 53.460938 16.070312 C 53.566406 15.890625 53.644531 15.683594 53.691406 15.460938 C 53.738281 15.230469 53.761719 14.996094 53.761719 14.75 C 53.757812 14.503906 53.734375 14.269531 53.6875 14.046875 Z M 53.6875 14.046875 "/>
<path style=" stroke:none;fill-rule:nonzero;fill:rgb(0%,0%,0%);fill-opacity:1;" d="M 13.664062 80.640625 C 13.585938 80.066406 13.03125 79.628906 12.394531 79.628906 C 11.246094 79.628906 10.816406 80.597656 10.816406 81.609375 C 10.816406 82.566406 11.246094 83.535156 12.394531 83.535156 C 13.175781 83.535156 13.617188 83.003906 13.710938 82.242188 L 14.953125 82.242188 C 14.820312 83.679688 13.820312 84.601562 12.394531 84.601562 C 10.59375 84.601562 9.535156 83.265625 9.535156 81.609375 C 9.535156 79.898438 10.59375 78.5625 12.394531 78.5625 C 13.675781 78.5625 14.746094 79.304688 14.902344 80.640625 Z M 13.664062 80.640625 "/>
<path style=" stroke:none;fill-rule:nonzero;fill:rgb(0%,0%,0%);fill-opacity:1;" d="M 17.625 80.179688 C 18.953125 80.179688 19.804688 81.050781 19.804688 82.382812 C 19.804688 83.707031 18.953125 84.578125 17.625 84.578125 C 16.304688 84.578125 15.449219 83.703125 15.449219 82.382812 C 15.449219 81.054688 16.304688 80.179688 17.625 80.179688 Z M 17.625 83.71875 C 18.417969 83.71875 18.648438 83.046875 18.648438 82.386719 C 18.648438 81.714844 18.410156 81.050781 17.625 81.050781 C 16.84375 81.050781 16.605469 81.722656 16.605469 82.386719 C 16.605469 83.046875 16.84375 83.71875 17.625 83.71875 Z M 17.625 83.71875 "/>
<path style=" stroke:none;fill-rule:nonzero;fill:rgb(0%,0%,0%);fill-opacity:1;" d="M 20.523438 80.289062 L 21.621094 80.289062 L 21.621094 81.0625 L 21.640625 81.0625 C 21.851562 80.539062 22.421875 80.175781 22.988281 80.175781 C 23.066406 80.175781 23.167969 80.191406 23.238281 80.214844 L 23.238281 81.28125 C 23.128906 81.257812 22.960938 81.242188 22.820312 81.242188 C 21.972656 81.242188 21.679688 81.847656 21.679688 82.582031 L 21.679688 84.460938 L 20.523438 84.460938 Z M 20.523438 80.289062 "/>
<path style=" stroke:none;fill-rule:nonzero;fill:rgb(0%,0%,0%);fill-opacity:1;" d="M 23.691406 80.292969 L 24.789062 80.292969 L 24.789062 80.824219 L 24.804688 80.824219 C 25.078125 80.382812 25.535156 80.179688 26.054688 80.179688 C 27.378906 80.179688 27.972656 81.238281 27.972656 82.421875 C 27.972656 83.535156 27.355469 84.578125 26.121094 84.578125 C 25.621094 84.578125 25.136719 84.359375 24.859375 83.949219 L 24.84375 83.949219 L 24.84375 85.933594 L 23.683594 85.933594 L 23.683594 80.292969 Z M 26.8125 82.394531 C 26.8125 81.730469 26.542969 81.042969 25.804688 81.042969 C 25.046875 81.042969 24.804688 81.714844 24.804688 82.394531 C 24.804688 83.070312 25.066406 83.71875 25.8125 83.71875 C 26.574219 83.71875 26.8125 83.070312 26.8125 82.394531 Z M 26.8125 82.394531 "/>
<path style=" stroke:none;fill-rule:nonzero;fill:rgb(0%,0%,0%);fill-opacity:1;" d="M 30.507812 80.179688 C 31.835938 80.179688 32.695312 81.050781 32.695312 82.382812 C 32.695312 83.707031 31.835938 84.578125 30.507812 84.578125 C 29.191406 84.578125 28.335938 83.703125 28.335938 82.382812 C 28.335938 81.054688 29.191406 80.179688 30.507812 80.179688 Z M 30.507812 83.71875 C 31.300781 83.71875 31.539062 83.046875 31.539062 82.386719 C 31.539062 81.714844 31.300781 81.050781 30.507812 81.050781 C 29.726562 81.050781 29.488281 81.722656 29.488281 82.386719 C 29.492188 83.046875 29.730469 83.71875 30.507812 83.71875 Z M 30.507812 83.71875 "/>
<path style=" stroke:none;fill-rule:nonzero;fill:rgb(0%,0%,0%);fill-opacity:1;" d="M 33.410156 80.289062 L 34.511719 80.289062 L 34.511719 81.0625 L 34.53125 81.0625 C 34.738281 80.539062 35.3125 80.175781 35.871094 80.175781 C 35.953125 80.175781 36.050781 80.191406 36.121094 80.214844 L 36.121094 81.28125 C 36.019531 81.257812 35.847656 81.242188 35.707031 81.242188 C 34.855469 81.242188 34.5625 81.847656 34.5625 82.582031 L 34.5625 84.460938 L 33.40625 84.460938 L 33.40625 80.289062 Z M 33.410156 80.289062 "/>
<path style=" stroke:none;fill-rule:nonzero;fill:rgb(0%,0%,0%);fill-opacity:1;" d="M 36.464844 81.574219 C 36.53125 80.5 37.496094 80.179688 38.445312 80.179688 C 39.285156 80.179688 40.296875 80.363281 40.296875 81.363281 L 40.296875 83.535156 C 40.296875 83.914062 40.332031 84.289062 40.441406 84.464844 L 39.265625 84.464844 C 39.230469 84.332031 39.191406 84.195312 39.1875 84.058594 C 38.820312 84.441406 38.285156 84.578125 37.769531 84.578125 C 36.972656 84.578125 36.335938 84.183594 36.335938 83.328125 C 36.335938 82.382812 37.050781 82.15625 37.769531 82.058594 C 38.480469 81.957031 39.140625 81.980469 39.140625 81.507812 C 39.140625 81.015625 38.792969 80.945312 38.390625 80.945312 C 37.949219 80.945312 37.664062 81.125 37.621094 81.574219 Z M 39.132812 82.425781 C 38.933594 82.59375 38.53125 82.605469 38.171875 82.667969 C 37.8125 82.742188 37.488281 82.863281 37.488281 83.285156 C 37.488281 83.710938 37.820312 83.816406 38.199219 83.816406 C 39.101562 83.816406 39.140625 83.105469 39.140625 82.859375 L 39.140625 82.425781 Z M 39.132812 82.425781 "/>
<path style=" stroke:none;fill-rule:nonzero;fill:rgb(0%,0%,0%);fill-opacity:1;" d="M 42.628906 80.292969 L 43.476562 80.292969 L 43.476562 81.058594 L 42.628906 81.058594 L 42.628906 83.125 C 42.628906 83.515625 42.726562 83.609375 43.117188 83.609375 C 43.242188 83.609375 43.355469 83.601562 43.476562 83.578125 L 43.476562 84.472656 C 43.28125 84.507812 43.027344 84.515625 42.800781 84.515625 C 42.09375 84.515625 41.472656 84.351562 41.472656 83.523438 L 41.472656 81.0625 L 40.769531 81.0625 L 40.769531 80.296875 L 41.472656 80.296875 L 41.472656 79.046875 L 42.628906 79.046875 Z M 42.628906 80.292969 "/>
<path style=" stroke:none;fill-rule:nonzero;fill:rgb(0%,0%,0%);fill-opacity:1;" d="M 45.507812 79.648438 L 44.351562 79.648438 L 44.351562 78.707031 L 45.507812 78.707031 Z M 44.351562 80.292969 L 45.507812 80.292969 L 45.507812 84.464844 L 44.351562 84.464844 Z M 44.351562 80.292969 "/>
<path style=" stroke:none;fill-rule:nonzero;fill:rgb(0%,0%,0%);fill-opacity:1;" d="M 48.457031 80.179688 C 49.785156 80.179688 50.640625 81.050781 50.640625 82.382812 C 50.640625 83.707031 49.785156 84.578125 48.457031 84.578125 C 47.136719 84.578125 46.285156 83.703125 46.285156 82.382812 C 46.285156 81.054688 47.136719 80.179688 48.457031 80.179688 Z M 48.457031 83.71875 C 49.25 83.71875 49.484375 83.046875 49.484375 82.386719 C 49.484375 81.714844 49.25 81.050781 48.457031 81.050781 C 47.675781 81.050781 47.4375 81.722656 47.4375 82.386719 C 47.4375 83.046875 47.675781 83.71875 48.457031 83.71875 Z M 48.457031 83.71875 "/>
<path style=" stroke:none;fill-rule:nonzero;fill:rgb(0%,0%,0%);fill-opacity:1;" d="M 51.386719 80.292969 L 52.488281 80.292969 L 52.488281 80.875 L 52.511719 80.875 C 52.804688 80.40625 53.308594 80.179688 53.800781 80.179688 C 55.027344 80.179688 55.34375 80.867188 55.34375 81.898438 L 55.34375 84.464844 L 54.183594 84.464844 L 54.183594 82.105469 C 54.183594 81.421875 53.980469 81.082031 53.445312 81.082031 C 52.8125 81.082031 52.546875 81.429688 52.546875 82.28125 L 52.546875 84.46875 L 51.390625 84.46875 L 51.390625 80.292969 Z M 51.386719 80.292969 "/>
</g>
</svg>
