<svg xmlns="http://www.w3.org/2000/svg" viewBox="0 0 38 35"><path fill="none" stroke="#000" stroke-width="2.5" d="M19.015 7.8409C19.8056 5.57718 21.1662 3.89689 23.1966 2.77718C29.0651 -0.457965 36.2946 3.76464 36.3324 10.4109C36.3546 14.2684 34.7758 17.4501 32.1745 20.1582C30.2694 22.1419 28.214 23.987 26.1871 25.8525C23.6152 28.2203 21.1451 30.6721 19.1487 33.5519C19.1123 33.6039 19.0627 33.6467 19.0445 33.6666C18.0229 32.4288 17.0967 31.1122 15.9754 29.9866C13.6728 27.6752 11.2784 25.4524 8.89668 23.2188C7.01964 21.4587 5.148 19.6973 3.76233 17.5099C2.00518 14.7376 1.22685 11.7344 1.91477 8.49386C2.69654 4.81239 5.99365 1.98614 9.6303 1.73089C13.7834 1.43868 17.3404 3.59545 18.7841 7.27983C18.845 7.43542 18.9108 7.58905 19.0145 7.8409H19.015Z"/></svg>