<svg width="40" height="40" viewBox="0 0 40 40" fill="none" xmlns="http://www.w3.org/2000/svg">
<g clip-path="url(#clip0_215_18)">
<rect y="9" width="17.5102" height="18.1176" rx="1" fill="black"/>
<path fill-rule="evenodd" clip-rule="evenodd" d="M19.1589 14.8232C18.6066 14.8232 18.1589 15.271 18.1589 15.8232V24.8232C18.1589 25.3755 18.6066 25.8232 19.1589 25.8232H26.2383C26.7906 25.8232 27.2383 25.3755 27.2383 24.8232V17.9663C27.2383 17.7944 27.194 17.6255 27.1098 17.4758L26.2065 15.8709L25.9037 15.3328C25.7266 15.018 25.3935 14.8232 25.0323 14.8232H23.9957H19.1589ZM20.4558 16.1172C19.9035 16.1172 19.4558 16.5649 19.4558 17.1172V18.9995C19.4558 19.5518 19.9035 19.9995 20.4558 19.9995H24.9411C25.4933 19.9995 25.9411 19.5518 25.9411 18.9995V18.2949C25.9411 18.1394 25.9048 17.986 25.8351 17.8469L25.2449 16.6692C25.0753 16.3308 24.7293 16.1172 24.3509 16.1172H20.4558Z" fill="black"/>
<ellipse cx="3.50812" cy="27.2647" rx="2.26984" ry="2.26471" fill="black"/>
<ellipse cx="20.5081" cy="27.2647" rx="2.26984" ry="2.26471" fill="black"/>
</g>
<defs>
<clipPath id="clip0_215_18">
<rect width="27.2381" height="22" fill="white" transform="matrix(-1 0 0 1 27.2383 9)"/>
</clipPath>
</defs>
</svg>
